<?xml version="1.0" encoding="UTF-8" standalone="no"?>
<svg
   xmlns:sketch="http://www.bohemiancoding.com/sketch/ns"
   xmlns:dc="http://purl.org/dc/elements/1.1/"
   xmlns:cc="http://creativecommons.org/ns#"
   xmlns:rdf="http://www.w3.org/1999/02/22-rdf-syntax-ns#"
   xmlns:svg="http://www.w3.org/2000/svg"
   xmlns="http://www.w3.org/2000/svg"
   xmlns:sodipodi="http://sodipodi.sourceforge.net/DTD/sodipodi-0.dtd"
   xmlns:inkscape="http://www.inkscape.org/namespaces/inkscape"
   width="60px"
   height="66px"
   viewBox="0 0 60 66"
   version="1.1"
   id="svg2"
   inkscape:version="0.91 r13725"
   sodipodi:docname="wapuu-developer.svg">
  <metadata
     id="metadata33">
    <rdf:RDF>
      <cc:Work
         rdf:about="">
        <dc:format>image/svg+xml</dc:format>
        <dc:type
           rdf:resource="http://purl.org/dc/dcmitype/StillImage" />
        <dc:title>Artboard</dc:title>
      </cc:Work>
    </rdf:RDF>
  </metadata>
  <sodipodi:namedview
     pagecolor="#ffffff"
     bordercolor="#666666"
     borderopacity="1"
     objecttolerance="10"
     gridtolerance="10"
     guidetolerance="10"
     inkscape:pageopacity="0"
     inkscape:pageshadow="2"
     inkscape:window-width="1383"
     inkscape:window-height="855"
     id="namedview31"
     showgrid="false"
     inkscape:zoom="5.0853351"
     inkscape:cx="28.085374"
     inkscape:cy="40.64173"
     inkscape:window-x="57"
     inkscape:window-y="1"
     inkscape:window-maximized="1"
     inkscape:current-layer="g8038" />
  <!-- Generator: Sketch 3.2.2 (9983) - http://www.bohemiancoding.com/sketch -->
  <title
     id="title4">Artboard</title>
  <desc
     id="desc6">Created with Sketch.</desc>
  <defs
     id="defs8">
    <clipPath
       clipPathUnits="userSpaceOnUse"
       id="clipPath4752">
      <path
         d="M 0,252 252,252 252,0 0,0 0,252 Z"
         id="path4754"
         inkscape:connector-curvature="0" />
    </clipPath>
    <clipPath
       clipPathUnits="userSpaceOnUse"
       id="clipPath6030">
      <path
         d="M 0,377 580,377 580,0 0,0 0,377 Z"
         id="path6032"
         inkscape:connector-curvature="0" />
    </clipPath>
  </defs>
  <g
     id="g8038"
     transform="matrix(0.54191037,0,0,0.54191037,-34.543878,10.266155)">
    <g
       id="g4184">
      <circle
         r="37.742443"
         cy="18.798065"
         cx="123.56465"
         id="path4161"
         style="opacity:1;fill:#d95e0a;fill-opacity:1;stroke:none;stroke-width:10.54100037;stroke-miterlimit:4;stroke-dasharray:none;stroke-opacity:1" />
      <g
         transform="matrix(0.98216017,0,0,0.98216017,5.9042517,1.8347727)"
         id="g4163">
        <path
           d="m 162.86475,6.7134963 c -0.57001,-0.1418774 -1.49956,-0.2103516 -5.23696,-0.2103516 -1.20688,0 -2.57874,0.00712 -4.03719,0.014249 -1.64645,0.00821 -3.40416,0.016981 -5.15858,0.016981 -2.82045,0 -6.76995,-0.020268 -9.58053,-0.1813187 C 134.35006,3.0821923 129.16463,1.3363837 123.42672,1.1632819 110.99231,0.78256745 99.982923,6.1552976 94.021401,15.391047 c -2.014762,1.915077 -5.80532,4.044338 -6.830239,4.271671 -1.718247,0.38181 -2.831409,1.886044 -2.645608,3.575977 0.133733,1.218286 1.000256,2.587215 2.933901,3.223748 -0.223071,0.219116 -0.435728,0.449187 -0.633587,0.687477 -1.310472,1.578185 -1.858557,3.372198 -1.543408,5.052273 0.06358,0.33689 0.151819,0.658992 0.264177,0.965206 -2.834697,4.822748 -4.326037,10.297369 -4.326037,15.925916 0,1.421518 0.09592,2.835912 0.286101,4.236613 -0.446142,-0.07724 -0.894475,-0.116678 -1.342809,-0.116678 -2.156168,0 -4.155035,0.934531 -5.482497,2.56366 -1.466128,1.80004 -1.980232,4.208127 -1.447493,6.780552 1.08466,5.239617 9.026416,14.07274 15.358994,15.592312 0.62372,0.149005 1.21949,0.225142 1.770314,0.225142 1.694133,0 3.093393,-0.713771 3.941282,-2.009843 0.26911,-0.411939 0.46368,-0.849077 0.598508,-1.296074 4.321654,2.978886 9.31745,4.823845 14.60976,5.359584 1.1466,3.739218 4.22519,4.362605 6.14623,4.362605 2.89608,0 5.39809,-1.176655 7.18211,-3.345905 0.16114,0.0022 0.32282,0.0039 0.48506,0.0039 1.22442,0 2.7459,-0.08381 4.48662,-0.352229 -5.57183,6.249195 -13.62102,9.84544 -19.54801,9.846536 l -0.002,0 c -2.49817,0 -5.85409,-0.637079 -7.65729,-3.668553 -2.38582,-4.010923 -6.210358,-6.502822 -9.98009,-6.502822 -3.959915,0 -6.711303,2.794279 -6.845584,6.952558 -0.0729,2.250871 1.107132,4.698947 3.412927,7.078551 3.878799,4.003801 11.400173,8.043756 19.461417,8.043756 1.78127,0 3.52692,-0.1994 5.18817,-0.59271 14.28529,-3.381511 27.08473,-14.812805 30.80787,-27.385695 13.63527,-10.411307 12.55444,-39.033366 8.03603,-51.795243 -0.31351,-0.885779 -0.65222,-1.753478 -1.0156,-2.600363 0.54973,0.06354 1.09343,0.09531 1.62836,0.09531 1.24908,0 2.46583,-0.175292 3.61736,-0.520401 7.08729,-2.124879 10.28921,-7.383121 10.22234,-10.2683341 -0.035,-1.5228825 -0.93608,-2.7263784 -2.29423,-3.0660086"
           id="Fill-1"
           sketch:type="MSShapeGroup"
           inkscape:connector-curvature="0"
           style="fill:#000000;fill-rule:evenodd;stroke:none;stroke-width:1" />
        <path
           d="m 88.819524,65.534702 c -0.710867,-1.30648 -1.483667,-2.652402 -2.241669,-3.861924 0.650029,1.348113 1.398713,2.639256 2.241669,3.861924"
           id="Fill-2"
           sketch:type="MSShapeGroup"
           inkscape:connector-curvature="0"
           style="fill:#005683;fill-rule:evenodd;stroke:none;stroke-width:1" />
        <path
           d="m 139.54536,40.182406 c -4.39893,-3.941354 -7.43149,-6.363683 -11.79205,-7.265347 -2.93171,-0.605855 -6.43069,0.169815 -9.5175,0.854006 -2.33923,0.519306 -4.35947,0.968494 -5.93138,0.801966 -2.41432,-0.254176 -4.32823,-1.523955 -4.87358,-3.236348 -0.3842,-1.206234 -0.27897,-3.139387 2.40719,-5.502009 1.11755,-0.983283 2.45488,-1.804969 3.92101,-2.472725 -2.11452,0.0032 -4.20382,-0.403175 -6.212,-1.468628 -2.59354,3.60008 -9.176045,6.208111 -11.201768,5.309187 -0.449978,-0.199943 -0.952572,-0.54286 -1.4168,-1.021082 -0.04384,0.03396 -0.08441,0.07121 -0.128256,0.105717 0.534381,0.500133 0.924072,1.200758 1.092334,2.019705 0.341456,1.660353 -0.240062,3.436838 -1.556015,4.751536 -1.145498,1.145429 -2.588607,1.80223 -3.958272,1.80223 -0.958053,0 -1.775796,-0.333056 -2.388555,-0.91481 -2.709734,4.410262 -4.282739,9.591813 -4.282739,15.147505 0,2.586668 0.345842,5.091166 0.981073,7.477891 2.719599,2.240463 7.199099,11.140964 8.176336,13.373759 0.05317,0.122159 0.113452,0.276633 0.175388,0.455214 4.661464,4.307824 10.734794,7.11306 17.452134,7.631271 -0.0844,-1.110372 -0.0466,-2.2936 -0.008,-3.462037 0.0471,-1.431376 0.0965,-2.912054 -0.0904,-4.12815 -0.154,-1.000814 -0.41106,-2.074484 -0.68346,-3.211149 -1.0145,-4.238255 -2.16548,-9.042378 1.8898,-11.744082 0.77718,-0.51821 1.62233,-0.78115 2.51078,-0.78115 3.64367,0 6.95575,4.39109 8.66468,7.729873 2.32717,-3.764964 6.15171,-6.152236 10.69972,-6.612928 2.30305,-0.233906 4.60118,0.06464 6.49536,0.765812 0.66811,-2.428904 1.01122,-4.94655 1.01122,-7.494324 0,-3.048454 -0.48342,-6.045965 -1.43654,-8.910909"
           id="Fill-3"
           sketch:type="MSShapeGroup"
           inkscape:connector-curvature="0"
           style="fill:#e0e0e0;fill-opacity:1;fill-rule:evenodd;stroke:none;stroke-width:1" />
        <path
           d="m 120.67588,33.25176 c -0.82925,0.162694 -1.64809,0.343463 -2.44007,0.519305 -2.33923,0.519306 -4.35947,0.968494 -5.93138,0.801966 -2.41432,-0.254176 -4.32823,-1.523955 -4.87358,-3.236348 -0.3842,-1.206234 -0.27897,-3.139387 2.40719,-5.502009 0.0389,-0.03396 0.0828,-0.06464 0.12168,-0.0986 -1.7292,-0.563676 -3.55049,-0.923575 -5.4359,-1.051211 -2.97994,2.012036 -6.734877,3.158013 -8.178533,2.517646 -0.44943,-0.199943 -0.951476,-0.542314 -1.415156,-1.019986 -0.04275,0.0356 -0.08549,0.07066 -0.129353,0.105177 0.534384,0.500133 0.923524,1.200758 1.091786,2.019157 0.341457,1.660353 -0.240061,3.436838 -1.556014,4.751536 -1.145498,1.145429 -2.588607,1.80223 -3.958272,1.80223 -0.958602,0 -1.776893,-0.333605 -2.389652,-0.915905 -2.709185,4.410261 -4.281642,9.592908 -4.281642,15.1486 0,2.584476 0.339813,5.089523 0.97614,7.473508 1.824028,1.498207 4.440586,5.997211 6.262423,9.475681 3.479792,2.213622 7.605778,3.502026 12.036503,3.502026 2.44829,0 4.80287,-0.396602 7.00946,-1.120233 -0.0899,-0.390575 -0.18361,-0.786627 -0.28117,-1.194183 -1.0145,-4.238256 -2.16548,-9.042379 1.8898,-11.744083 0.77718,-0.518209 1.62233,-0.781149 2.51078,-0.781149 2.80236,0 5.40467,2.597075 7.23582,5.315212 2.58367,-3.657597 4.1068,-8.117161 4.1068,-12.934978 0,-5.220993 -1.7873,-10.020735 -4.77766,-13.833356"
           id="Fill-4"
           sketch:type="MSShapeGroup"
           inkscape:connector-curvature="0"
           style="fill:#187e89;fill-opacity:1;fill-rule:evenodd;stroke:none;stroke-width:1" />
        <g
           transform="matrix(4.439717,-0.16636047,-0.2216085,5.0442318,-776.52791,-224.13871)"
           id="g8011">
          <circle
             style="opacity:1;fill:#187e89;fill-opacity:1;stroke:none;stroke-width:0.5;stroke-miterlimit:4;stroke-dasharray:none;stroke-opacity:1"
             id="circle9315"
             cx="200.82491"
             cy="60.375309"
             r="3.7945411" />
          <text
             xml:space="preserve"
             style="font-style:normal;font-weight:normal;font-size:8.34603596px;line-height:125%;font-family:sans-serif;letter-spacing:0px;word-spacing:0px;fill:#ffffff;fill-opacity:1;stroke:none;stroke-width:1px;stroke-linecap:butt;stroke-linejoin:miter;stroke-opacity:1"
             x="221.56203"
             y="55.116047"
             id="text9317"
             sodipodi:linespacing="125%"
             transform="scale(0.89231172,1.1206846)"><tspan
               sodipodi:role="line"
               id="tspan9319"
               x="221.56203"
               y="55.116047"
               style="font-style:normal;font-variant:normal;font-weight:bold;font-stretch:normal;font-size:4.65339279px;font-family:'Ubuntu Mono';-inkscape-font-specification:'Ubuntu Mono Bold';fill:#ffffff;fill-opacity:1">&lt;/&gt;</tspan></text>
        </g>
        <path
           d="m 122.03952,66.722861 c -0.009,-0.0345 -0.0164,-0.06793 -0.0252,-0.102985 -0.0784,-0.31224 -0.16497,-0.633793 -0.26253,-0.967946 -0.81391,-2.929585 -4.68449,-8.755885 -7.64086,-8.755885 -0.45436,0 -0.87803,0.135296 -1.29513,0.413034 -2.5886,1.72554 -2.06628,4.846851 -0.97285,9.41159 0.27021,1.128997 0.54973,2.296887 0.71745,3.38699 0.21868,1.418229 0.16552,3.002988 0.11454,4.534611 -0.0789,2.378505 -0.16059,4.838633 0.86543,5.898608 0.44888,0.463978 1.14824,0.689669 2.13863,0.689669 0.28665,0 0.55631,-0.02137 0.81719,-0.05423 0.0795,-0.0099 0.15456,-0.02465 0.23129,-0.03725 0.18197,-0.02958 0.35791,-0.06573 0.52726,-0.109562 0.0751,-0.01971 0.15018,-0.03998 0.22307,-0.06244 0.17649,-0.05368 0.3453,-0.115583 0.50753,-0.184057 0.0477,-0.01971 0.0981,-0.03725 0.1447,-0.05806 0.20827,-0.09477 0.40668,-0.199395 0.59303,-0.314433 0.0181,-0.01158 0.0345,-0.02465 0.0526,-0.03615 0.16497,-0.105177 0.32063,-0.216925 0.46806,-0.334701 0.0433,-0.0345 0.0844,-0.07012 0.12661,-0.105718 0.12112,-0.102444 0.23677,-0.208708 0.34639,-0.317719 0.0367,-0.0367 0.0745,-0.07341 0.11016,-0.110658 0.12278,-0.129275 0.23897,-0.261844 0.34749,-0.3966 0.0127,-0.01588 0.0269,-0.03067 0.0389,-0.04656 0.12112,-0.153389 0.23238,-0.309502 0.33597,-0.46617 0.0247,-0.0367 0.046,-0.07395 0.0691,-0.110102 0.0734,-0.116138 0.1436,-0.232264 0.20827,-0.3473 0.0312,-0.05533 0.0608,-0.109561 0.0899,-0.164336 0.0504,-0.09531 0.0981,-0.189537 0.14304,-0.283208 0.028,-0.05862 0.0576,-0.117775 0.0839,-0.175841 0.0373,-0.08162 0.0696,-0.159955 0.10249,-0.238837 0.0691,-0.164884 0.13099,-0.324291 0.18252,-0.471099 0.003,-0.0082 0.007,-0.01698 0.009,-0.02465 0.0362,-0.105178 0.069,-0.204875 0.0976,-0.29745 0.12442,-0.404818 0.18087,-0.688574 0.18909,-0.736232 0.008,-0.04712 0.0197,-0.09641 0.0345,-0.141332 0.82158,-2.599267 1.15152,-4.785499 0.48231,-8.003768 -0.0592,-0.284852 -0.12716,-0.578467 -0.20169,-0.879204"
           id="Fill-6"
           sketch:type="MSShapeGroup"
           inkscape:connector-curvature="0"
           style="fill:#13a8b1;fill-opacity:1;fill-rule:evenodd;stroke:none;stroke-width:1" />
        <path
           d="m 148.40461,9.8216601 c -3.27316,0 -7.96094,-0.02739 -10.86853,-0.2629395 -0.25321,-0.020268 -0.47683,-0.020268 -0.62153,-0.00821 0.21431,0.3500383 0.73992,0.9630164 1.57958,1.6625444 l 0.21157,0.179128 c 5.71159,4.867119 10.01077,5.889297 12.61144,5.889845 l 0.001,0 c 0.92901,0 1.82787,-0.128735 2.67356,-0.382359 4.01254,-1.202948 6.47728,-3.688274 7.44519,-5.612662 0.36119,-0.719249 0.43464,-1.191445 0.43464,-1.4132998 -0.5459,-0.055327 -1.96544,-0.083263 -4.23122,-0.083263 -1.20579,0 -2.5771,0.00658 -4.03555,0.014249 -1.65906,0.00821 -3.43157,0.016981 -5.20024,0.016981"
           id="Fill-7"
           sketch:type="MSShapeGroup"
           inkscape:connector-curvature="0"
           style="fill:#187e89;fill-opacity:1;fill-rule:evenodd;stroke:none;stroke-width:1" />
        <path
           d="m 77.252184,57.851939 c -0.830349,1.019438 -1.106584,2.453555 -0.778281,4.039408 0.837474,4.045982 8.032737,11.893082 12.906311,13.062067 0.37215,0.08929 0.70977,0.134756 1.002996,0.134756 0.759646,0 1.042459,-0.297451 1.189345,-0.521497 0.594124,-0.908784 0.257052,-2.885214 -0.214301,-3.962169 -1.349386,-3.082419 -5.625547,-11.163426 -7.786647,-12.825422 -1.087949,-0.837025 -2.259208,-1.27909 -3.387715,-1.27909 -1.180028,0 -2.221938,0.480411 -2.931708,1.351945"
           id="Fill-8"
           sketch:type="MSShapeGroup"
           inkscape:connector-curvature="0"
           style="fill:#13a8b1;fill-opacity:1;fill-rule:evenodd;stroke:none;stroke-width:1" />
        <path
           d="m 88.535068,31.595788 c 0.25157,1.339897 1.141112,1.621461 1.84321,1.621461 0.922976,0 1.968174,-0.49356 2.795783,-1.321271 0.923524,-0.923027 1.337876,-2.140766 1.108229,-3.258807 -0.142506,-0.69405 -0.521777,-1.225955 -1.014507,-1.422612 -0.08057,-0.03231 -0.191281,-0.04931 -0.320629,-0.04931 -0.885158,0 -2.502009,0.796487 -3.570776,2.083795 -0.390237,0.470552 -1.019439,1.400701 -0.84131,2.346734"
           id="Fill-9"
           sketch:type="MSShapeGroup"
           inkscape:connector-curvature="0"
           style="fill:#13a8b1;fill-opacity:1;fill-rule:evenodd;stroke:none;stroke-width:1" />
        <path
           d="m 90.378278,34.860621 0,0 c -1.791143,0 -3.116961,-1.135023 -3.460063,-2.962452 -0.22307,-1.189802 0.2006,-2.503404 1.192634,-3.698683 1.288548,-1.551342 3.322493,-2.677599 4.836305,-2.677599 0.340908,0 0.654413,0.05587 0.931196,0.166528 1.006833,0.402626 1.759902,1.381528 2.014214,2.618439 0.341457,1.660353 -0.240061,3.436838 -1.556014,4.751536 -1.145498,1.145429 -2.588607,1.802231 -3.958272,1.802231 l 0,0 z m 2.568876,-7.695362 c -0.885158,0 -2.502009,0.796486 -3.570776,2.083794 -0.390237,0.470553 -1.019439,1.400701 -0.84131,2.346735 0.25157,1.339897 1.141112,1.621461 1.84321,1.621461 0.922976,0 1.968174,-0.49356 2.795783,-1.321271 0.923524,-0.923027 1.337876,-2.140766 1.108229,-3.258807 -0.142506,-0.69405 -0.521777,-1.225955 -1.014507,-1.422612 -0.08057,-0.03231 -0.191281,-0.04931 -0.320629,-0.04931 l 0,0 z"
           id="Fill-12"
           sketch:type="MSShapeGroup"
           inkscape:connector-curvature="0"
           style="fill:#000000;fill-rule:evenodd;stroke:none;stroke-width:1" />
        <path
           d="m 139.08113,75.272776 c -1.6437,0.981641 -3.25398,1.76279 -4.79903,2.374125 -5.07089,9.272999 -16.0863,16.398111 -25.64381,16.579431 -4.93661,0.08108 -8.761146,-1.779226 -10.838937,-5.271391 -2.331007,-3.918346 -5.891369,-5.365061 -8.207577,-4.769064 -1.552178,0.399887 -2.44172,1.693768 -2.50475,3.644451 -0.05536,1.711298 1.456262,3.994488 4.043225,6.107865 4.651052,3.800571 12.632269,6.856147 19.974419,5.117459 12.69256,-3.004083 24.09273,-12.809535 27.97646,-23.782876"
           id="Fill-10"
           sketch:type="MSShapeGroup"
           inkscape:connector-curvature="0"
           style="fill:#187e89;fill-opacity:1;fill-rule:evenodd;stroke:none;stroke-width:1" />
        <path
           d="m 87.904769,22.871127 c -0.07673,0.01698 -0.100299,0.04327 -0.100849,0.04327 0.0077,-0.0028 0.05645,0.08929 0.238418,0.211996 0.333235,0.225142 1.69139,0.857839 5.369043,-0.124351 -0.112912,-0.852362 -0.07015,-1.915624 0.299802,-3.178829 -2.149042,1.493825 -4.572676,2.774012 -5.806415,3.047906"
           id="Fill-11"
           sketch:type="MSShapeGroup"
           inkscape:connector-curvature="0"
           style="fill:#187e89;fill-opacity:1;fill-rule:evenodd;stroke:none;stroke-width:1" />
        <path
           d="m 147.6066,24.16994 c -0.91914,-2.595981 -2.04819,-4.958601 -3.35593,-7.082385 -1.96543,-0.956991 -4.17586,-2.369195 -6.6121,-4.444773 l -0.19676,-0.167624 c -2.69384,-2.242655 -2.32224,-3.2675712 -2.20056,-3.6044624 0.0976,-0.2700608 0.27075,-0.4809601 0.50972,-0.6387239 -3.65189,-2.3374224 -7.8442,-3.6449985 -12.42345,-3.7830418 -11.3799,-0.3445602 -21.3534,4.4951697 -26.684628,12.9459361 -1.457358,2.311128 -1.961049,4.411357 -1.455165,6.074997 0.368313,1.211713 1.21346,1.958899 1.825123,2.230603 1.035881,0.461239 7.62661,-1.825237 9.54162,-5.305352 0.10906,-0.196657 0.29322,-0.341273 0.51081,-0.398244 0.21869,-0.05697 0.44943,-0.023 0.64071,0.09477 4.49649,2.765246 9.55094,1.500946 13.93452,0.09914 0.43409,-0.137488 0.89503,0.100253 1.03369,0.532454 0.074,0.232262 0.0367,0.471647 -0.0778,0.66666 2.89718,-0.07614 5.80422,0.365377 8.36597,1.37605 0.42203,0.166528 0.62921,0.643655 0.46259,1.066 -0.16662,0.422348 -0.64455,0.62996 -1.06658,0.462336 -6.30298,-2.485874 -14.83886,-1.268134 -19.434,2.774011 -1.57575,1.38591 -2.26031,2.724711 -1.92707,3.769347 0.34255,1.07367 1.74017,1.918364 3.47924,2.100778 1.30719,0.135852 3.29619,-0.304025 5.40358,-0.771838 3.2474,-0.720344 6.92944,-1.537099 10.20644,-0.858935 5.31095,1.098321 8.83459,4.282627 14.16746,9.102636 l 0.65002,0.587232 c 0.33653,0.304023 0.36284,0.823876 0.0587,1.16022 -0.16223,0.180223 -0.38585,0.271157 -0.61002,0.271157 -0.18635,0 -0.3705,-0.06793 -0.52287,-0.194466 0.52616,2.237177 0.79637,4.534063 0.79637,6.858886 0,2.787159 -0.38695,5.540902 -1.14331,8.192756 0.84679,0.478769 1.55821,1.05395 2.06793,1.71349 0.27788,0.358802 0.21156,0.875369 -0.14743,1.152002 -0.35845,0.277731 -0.87639,0.211996 -1.15317,-0.147353 -1.42009,-1.836743 -5.03691,-2.907124 -8.60988,-2.547226 -2.60176,0.263487 -7.34269,1.509162 -10.02941,6.844096 0.10249,0.273895 0.18745,0.527521 0.24938,0.750473 1.40858,4.824939 1.07534,7.752332 0.0103,11.145347 -0.10468,0.572442 -0.30747,1.254989 -0.61111,1.96602 3.61791,0.01034 10.0042,-0.783888 16.79991,-5.460376 12.86685,-8.854488 11.73505,-36.705806 7.54713,-48.532603"
           id="Fill-13"
           sketch:type="MSShapeGroup"
           inkscape:connector-curvature="0"
           style="fill:#13a8b1;fill-opacity:1;fill-rule:evenodd;stroke:none;stroke-width:1" />
        <path
           d="m 162.46574,8.3081146 c -0.39736,-0.099698 -1.3439,-0.1610505 -4.82534,-0.1610505 -1.20798,0 -2.58203,0.00658 -4.04378,0.014249 -1.65686,0.00821 -3.42553,0.016981 -5.19201,0.016981 -3.02652,0 -7.26925,-0.023555 -10.13738,-0.2136384 -4.25095,-3.1974601 -9.29717,-4.989831 -14.89038,-5.1590982 -11.92579,-0.3653763 -22.40573,4.7301717 -28.064161,13.6213605 -2.176446,2.146791 -6.359433,4.52749 -7.764175,4.840277 -0.650578,0.144065 -1.141114,0.580658 -1.314309,1.166795 -0.174291,0.593257 0.01315,1.242389 0.500402,1.735949 0.446689,0.450283 1.376242,1.013411 3.235895,1.013411 1.000256,0 2.274007,-0.166528 3.882089,-0.597091 0.603989,1.368381 1.644803,2.239368 2.492691,2.616248 2.025723,0.898924 8.608228,-1.709107 11.201768,-5.309187 2.00818,1.065453 4.09748,1.471914 6.212,1.468628 -1.46613,0.667756 -2.80346,1.489442 -3.92101,2.472725 -2.68616,2.362622 -2.79139,4.295775 -2.40719,5.502009 0.54535,1.712393 2.45926,2.982172 4.87358,3.236348 1.57191,0.166528 3.59215,-0.28266 5.93138,-0.801966 3.08681,-0.684191 6.58579,-1.459861 9.5175,-0.854006 4.36056,0.901664 7.39312,3.323993 11.79205,7.265347 0.95312,2.864944 1.43653,5.862455 1.43653,8.910909 0,2.547775 -0.3431,5.065421 -1.01121,7.494324 -1.89419,-0.701172 -4.19231,-0.999718 -6.49536,-0.765812 -4.54801,0.460692 -8.37255,2.847965 -10.69972,6.612929 -1.70893,-3.338784 -5.02101,-7.729873 -8.66468,-7.729873 -0.88845,0 -1.7336,0.26294 -2.51078,0.781149 -4.05528,2.701704 -2.9043,7.505827 -1.8898,11.744082 0.2724,1.136665 0.52945,2.210335 0.68346,3.21115 0.1869,1.216095 0.13757,2.696773 0.0904,4.128149 -0.0943,2.835364 -0.19183,5.766591 1.48038,7.49487 0.87145,0.900568 2.12109,1.357426 3.71437,1.357426 3.29509,0 5.4255,-1.71568 6.70254,-3.633494 0.29103,0.01096 0.59905,0.01862 0.93558,0.01862 2.12054,0 5.1098,-0.265679 8.55067,-1.314698 -5.14158,7.985692 -14.81364,13.930862 -23.26073,14.091365 -3.02927,0.06573 -7.13498,-0.671042 -9.394734,-4.468875 -2.744262,-4.612945 -7.124561,-6.270011 -10.030509,-5.520086 -2.288803,0.588875 -3.650795,2.478752 -3.737941,5.182646 -0.0729,2.252516 1.620688,4.961888 4.64557,7.432972 3.976907,3.248945 10.248104,5.985162 16.642064,5.985162 1.58725,0 3.18273,-0.16872 4.75244,-0.54013 13.94494,-3.301527 26.40127,-14.533974 29.75446,-26.77819 7.54165,-5.385328 9.94226,-16.089706 10.62189,-24.169069 0.86598,-10.299558 -0.73389,-20.523522 -2.7037,-26.086336 -0.69607,-1.96602 -1.51382,-3.797832 -2.42747,-5.509678 1.8317,0.614075 3.37456,0.81347 4.58802,0.81347 l 10e-4,0 c 1.08905,0 2.14685,-0.152293 3.14601,-0.451379 6.4137,-1.923287 9.09712,-6.662771 9.05108,-8.6561811 -0.0181,-0.7855317 -0.41106,-1.3503038 -1.04958,-1.5097109 l 0,0 z M 93.411382,23.00205 c -3.677653,0.982188 -5.035808,0.349491 -5.369044,0.124351 -0.181964,-0.122699 -0.230744,-0.214734 -0.238417,-0.211995 5.48e-4,0 0.02412,-0.02629 0.100849,-0.04327 1.23374,-0.273895 3.657374,-1.554082 5.806416,-3.047906 -0.369958,1.263205 -0.412708,2.326466 -0.299802,3.178828 l 0,0 z M 121.7589,75.605833 c -0.0148,0.04492 -0.0263,0.09422 -0.0345,0.141332 -0.04,0.2235 -1.03369,5.483385 -6.04538,5.483385 -0.9904,0 -1.68975,-0.22569 -2.13863,-0.689669 -1.02602,-1.059974 -0.94435,-3.520103 -0.86543,-5.898608 0.051,-1.531623 0.10413,-3.116382 -0.11455,-4.534611 -0.16771,-1.090103 -0.44723,-2.257993 -0.71744,-3.38699 -1.09343,-4.564739 -1.61576,-7.68605 0.97285,-9.41159 0.41709,-0.27773 0.84076,-0.413034 1.29513,-0.413034 2.95637,0 6.82695,5.8263 7.64085,8.755885 1.27211,4.359317 0.98436,6.861078 0.007,9.953903 l 0,0 z m -10.65423,23.449819 c -7.34215,1.738688 -15.323367,-1.316888 -19.974419,-5.117459 -2.586963,-2.113377 -4.098582,-4.396567 -4.043225,-6.107865 0.06303,-1.950683 0.952572,-3.244564 2.50475,-3.644451 2.316208,-0.595997 5.87657,0.850718 8.207577,4.769064 2.077791,3.492165 5.902327,5.352463 10.838937,5.271391 9.55751,-0.18132 20.57292,-7.306432 25.64381,-16.579431 1.54505,-0.611335 3.15533,-1.392484 4.79903,-2.374125 -3.88373,10.973341 -15.2839,20.778793 -27.97646,23.782876 l 0,0 z M 147.6066,24.16994 c 4.18792,11.826797 5.31972,39.678116 -7.54713,48.532603 -6.79571,4.676488 -13.182,5.470784 -16.79991,5.460376 0.30364,-0.711031 0.50643,-1.393578 0.61111,-1.96602 1.06493,-3.393015 1.39817,-6.320408 -0.0103,-11.145347 -0.0619,-0.222952 -0.14689,-0.476578 -0.24938,-0.750473 2.68671,-5.334934 7.42765,-6.580609 10.02941,-6.844096 3.57297,-0.359898 7.18979,0.710483 8.60987,2.547226 0.27679,0.359351 0.79473,0.425086 1.15318,0.147353 0.35899,-0.276633 0.42531,-0.7932 0.14743,-1.152002 -0.50972,-0.65954 -1.22114,-1.234721 -2.06793,-1.71349 0.75636,-2.651854 1.14331,-5.405597 1.14331,-8.192756 0,-2.324823 -0.27021,-4.621709 -0.79637,-6.858886 0.15237,0.126544 0.33652,0.194466 0.52287,0.194466 0.22417,0 0.44779,-0.09093 0.61002,-0.271157 0.30419,-0.336344 0.27788,-0.856197 -0.0587,-1.16022 l -0.65003,-0.587231 c -5.33287,-4.82001 -8.85651,-8.004316 -14.16745,-9.102637 -3.277,-0.678164 -6.95904,0.138585 -10.20645,0.858935 -2.10738,0.467813 -4.09638,0.90769 -5.40357,0.771838 -1.73907,-0.182414 -3.13669,-1.027108 -3.47924,-2.100778 -0.33324,-1.044636 0.35132,-2.383437 1.92706,-3.769347 4.59515,-4.042145 13.13103,-5.259885 19.43401,-2.774011 0.42203,0.167624 0.89996,-0.03998 1.06658,-0.462336 0.16661,-0.422345 -0.0406,-0.899471 -0.46259,-1.066 -2.56175,-1.010673 -5.46879,-1.452192 -8.36597,-1.37605 0.11455,-0.195013 0.15181,-0.434398 0.0778,-0.66666 -0.13866,-0.432207 -0.5996,-0.669948 -1.03369,-0.532454 -4.38358,1.401798 -9.43803,2.666097 -13.93452,-0.09914 -0.19128,-0.117774 -0.42202,-0.151737 -0.64071,-0.09477 -0.21759,0.05696 -0.40175,0.201587 -0.51082,0.398244 -1.915,3.480115 -8.50573,5.766591 -9.541612,5.305352 -0.611663,-0.271704 -1.456809,-1.01889 -1.825123,-2.230603 -0.505883,-1.66364 -0.0022,-3.763869 1.455166,-6.074997 5.331229,-8.4507663 15.304729,-13.2904962 26.684629,-12.945936 4.57925,0.1380426 8.77155,1.4456194 12.42345,3.7830418 -0.23897,0.1577638 -0.41216,0.3686631 -0.50972,0.6387239 -0.12168,0.3368912 -0.49328,1.3618073 2.20056,3.6044623 l 0.19676,0.167624 c 2.43624,2.075578 4.64667,3.487782 6.6121,4.444773 1.30774,2.123784 2.43679,4.486405 3.35593,7.082385 l 0,0 z M 161.43698,11.287 c -0.96791,1.924388 -3.43265,4.409714 -7.44519,5.612662 -0.84569,0.253628 -1.74455,0.382359 -2.67356,0.382359 l -0.001,0 c -2.60067,-5.48e-4 -6.89985,-1.022726 -12.61144,-5.889845 l -0.21157,-0.179128 c -0.83966,-0.699528 -1.36527,-1.312506 -1.57958,-1.6625443 0.1447,-0.012057 0.36832,-0.012057 0.62153,0.00821 2.90759,0.2355499 7.59537,0.2629395 10.86853,0.2629395 1.76867,0 3.54118,-0.00877 5.20024,-0.016981 1.45845,-0.00767 2.82976,-0.014249 4.03555,-0.014249 2.26578,0 3.68532,0.027938 4.23122,0.083263 0,0.2218548 -0.0734,0.6940508 -0.43464,1.4132998 l 0,0 z"
           id="Fill-14"
           sketch:type="MSShapeGroup"
           inkscape:connector-curvature="0"
           style="fill:#000000;fill-rule:evenodd;stroke:none;stroke-width:1" />
        <path
           d="m 105.81345,16.043466 c -1.30718,0.979997 -0.9131,2.19171 0.54809,2.374123 1.46174,0.182416 1.57575,0.279374 2.92349,-0.730751 1.46119,-1.095582 1.64425,-2.921916 0,-2.738954 -1.64426,0.182963 -2.74043,0.547791 -3.47158,1.095582"
           id="Fill-15"
           sketch:type="MSShapeGroup"
           inkscape:connector-curvature="0"
           style="fill:#000000;fill-rule:evenodd;stroke:none;stroke-width:1" />
        <path
           d="m 90.38321,76.731543 0,0 c -0.422024,0 -0.888446,-0.06025 -1.386656,-0.179677 -5.560324,-1.334417 -13.170488,-9.678911 -14.132926,-14.327462 -0.430247,-2.078865 -0.03508,-4.000514 1.112613,-5.409432 1.014506,-1.244581 2.548049,-1.958352 4.207651,-1.958352 1.49408,0 3.012276,0.56039 4.390711,1.620365 2.706993,2.081057 7.298852,11.204509 8.289789,13.46798 0.41216,0.941651 1.230453,3.768251 0.08386,5.521181 -0.377632,0.577371 -1.129604,1.265397 -2.56504,1.265397 l 0,0 z M 80.183892,56.499993 c -1.180028,0 -2.221938,0.480412 -2.931708,1.351946 -0.830349,1.019438 -1.106584,2.453555 -0.778281,4.039408 0.837474,4.045982 8.032737,11.893082 12.906311,13.062067 0.37215,0.08929 0.70977,0.134756 1.002996,0.134756 0.759646,0 1.042459,-0.297451 1.189345,-0.521497 0.594124,-0.908784 0.257052,-2.885214 -0.214301,-3.962169 -1.349386,-3.082417 -5.625547,-11.163425 -7.786647,-12.82542 -1.087949,-0.837025 -2.259208,-1.279091 -3.387715,-1.279091 l 0,0 z"
           id="Fill-18"
           sketch:type="MSShapeGroup"
           inkscape:connector-curvature="0"
           style="fill:#000000;fill-rule:evenodd;stroke:none;stroke-width:1" />
      </g>
    </g>
  </g>
  <circle
     r="0"
     cy="15.452551"
     cx="-1242.2245"
     id="ellipse9206"
     style="opacity:1;fill:#d5e5d5;fill-opacity:1;stroke:none;stroke-width:0.1;stroke-miterlimit:4;stroke-dasharray:none;stroke-opacity:1" />
  <text
     sodipodi:linespacing="125%"
     id="text7029"
     y="882.62476"
     x="583.08655"
     style="font-style:normal;font-weight:normal;font-size:40px;line-height:125%;font-family:sans-serif;letter-spacing:0px;word-spacing:0px;fill:#000000;fill-opacity:1;stroke:none;stroke-width:1px;stroke-linecap:butt;stroke-linejoin:miter;stroke-opacity:1"
     xml:space="preserve"><tspan
       y="882.62476"
       x="583.08655"
       id="tspan7031"
       sodipodi:role="line" /></text>
</svg>
